<svg width="383" height="182" viewBox="0 0 383 182" fill="none" xmlns="http://www.w3.org/2000/svg">
<path d="M160 40.5C161.427 37.3584 164.5 34.4999 165 34C165.5 33.5 170 30.5 175 29.5C180 28.5 182.768 28.844 187.5 30C190.69 31.3602 192.323 32.243 195 34C197.323 35.7728 198.328 36.9108 200 39C201.156 41.2632 201.448 42.5819 201.5 45C201.538 47.893 201.098 49.3974 200 52C198.933 53.7328 198.05 54.6057 196 56C193.634 57.3006 192.075 57.8959 188.5 58.5C185.258 59.2087 183.404 59.2782 180 58.5C177.084 57.707 175.445 57.199 172.5 56C169.706 54.9336 168.094 54.171 165 52C163.893 51.1852 163.25 50.587 161.5 47C160.531 45.0521 160.219 43.2005 160 40.5Z" fill="#D9D9D9" stroke="black"/>
<path d="M36.5 117.5C10.9554 99.1136 6.96285 85.0622 9.5 56.5C9.5 56.5 -0.500005 48 0.999999 42.5C2.5 37 15.5 40.5 15.5 40.5C25.6716 25.4643 34.2484 19.548 51.5 13.5C51.5 13.5 49.5 3.5 55 1C60.5 -1.5 69 10 69 10C84.3671 8.73429 91.6446 10.4613 103 16.5C117.272 16.1323 123.021 22.6775 132 37C143.721 35.7861 149.796 36.3595 160 40.5C160.33 44.7633 161.093 46.774 163 50C163.667 51 166.048 53.2854 170 55C175.341 57.3173 176 57.5 180 58.5C184 59.5 188 58.6667 189.5 58.5L194.5 57L197.5 55C216.717 66.4652 223.912 80.5959 233 110.5C234.466 109.938 265 120 263 127.5C261 135 229.5 130.5 229.5 130.5C225.618 138.021 222.569 141.645 215.5 147C215.5 147 244 153 241.5 164.5C239 176 199.141 171.949 194.5 169.5C148.06 184.155 121.909 184.831 75 168.5L70.5 171L67 172.5L62 174L57 175H52.5H50L47.5 174.5L44 173.5L40.5 172L37.5 170L35 167L33 164L31.5 161L30.5 158L29.5 155.5L29 153.5L28.5 151.5L28 149L27.5 146.5L27.5 144C28.692 131.884 30.7378 126.14 36.5 117.5Z" fill="#D9D9D9" stroke="black"/>
<path d="M75 168.5L79.5 165L83 161.5L85 158L86 154L85 150L83 147.5L77.5 146H71.5" stroke="black"/>
<path d="M36.5 117.5C38.692 115.197 40.3265 114.058 44.5 112.5C50.7197 111.078 54.018 111.022 59.5 112.5C64.2876 113.691 65.7389 114.347 68 115.5L71 117.5L74.5 121" stroke="black"/>
<path d="M132 37C124.524 38.264 121.616 39.1837 117.5 41" stroke="black"/>
<path d="M69 10C69.471 9.18727 54.5522 11.4063 51.5 13.5" stroke="black"/>
<path d="M229.5 130.5L231.5 126.5" stroke="black"/>
<path d="M216 147L211 149" stroke="black"/>
<path d="M217.5 145.5L229 148L238 149.5L247 150.5L256.5 151.5L264 152H270.5H275H281.5H287H290.5H299.5H309.5L315 152.5L319 153C322.082 153.876 324.37 153.843 328 154.5L333.5 155.5L338.5 156.5L344.5 157L352 157.5H361L367.5 156L373 153.5C375.69 151.845 377.105 150.612 379.5 148C380.953 145.022 381.62 143.192 381.5 138.5C381.349 136.186 381.131 134.841 379.5 132C377.304 130.094 375.659 129.331 372 128.5C369.915 127.813 368.659 127.52 365 128.5L353 131L346 132L332.5 133L323.5 133.5L311.5 134.5L290.5 136H275L256.5 134.5L241 133L230 131C226.416 137.285 223.627 140.435 217.5 145.5Z" fill="#D9D9D9"/>
<path d="M287 152H281.5H275H270.5H264L256.5 151.5L247 150.5L238 149.5L229 148L217.5 145.5C223.627 140.435 226.416 137.285 230 131L241 133L256.5 134.5L275 136H290.5L311.5 134.5L323.5 133.5L332.5 133L346 132L353 131L365 128.5C368.659 127.52 369.915 127.813 372 128.5C375.659 129.331 377.304 130.094 379.5 132C381.131 134.841 381.349 136.186 381.5 138.5C381.62 143.192 380.953 145.022 379.5 148C377.105 150.612 375.69 151.845 373 153.5L367.5 156L361 157.5H352L344.5 157L338.5 156.5L333.5 155.5L328 154.5C324.37 153.843 322.082 153.876 319 153L315 152.5L309.5 152H299.5M287 152C286.167 152 285.7 152 290.5 152M287 152H290.5M290.5 152C295.3 152 298.5 152 299.5 152M290.5 152H299.5" stroke="black"/>
<path d="M42 55C50.8799 54.0483 54.5179 49.3096 55 46" stroke="black"/>
<path d="M70 35C73.8544 34.1881 75.8965 33.4703 79 31C80.468 29.2129 81.1625 28.3085 82 27" stroke="black"/>
<path d="M72.5 43C70.9314 42.755 66.8894 46.1782 66 49C69.9947 50.1759 71.7967 50.0729 74.5 49C74.9528 47.0041 73.7211 43.1908 72.5 43Z" stroke="black"/>
<path d="M74 49L77 51C84.063 50.6259 86.4611 47.8894 86 44.5" stroke="black"/>
<path d="M77 51C78.6407 58.0913 74.882 60.2085 71 59.5" stroke="black"/>
</svg>
